<svg id="svg" version="1.1" width="400" height="401" xmlns="http://www.w3.org/2000/svg" xmlns:xlink="http://www.w3.org/1999/xlink" ><g id="svgg"><path id="path0" d="M193.202 9.250 C 179.874 21.573,175.101 26.312,175.294 27.033 C 175.407 27.455,175.120 27.801,174.657 27.802 C 173.250 27.807,167.857 33.350,166.924 35.750 C 166.443 36.987,165.363 38.000,164.525 38.000 C 163.686 38.000,163.000 38.675,163.000 39.500 C 163.000 40.843,162.432 41.151,160.361 40.933 C 160.009 40.895,159.060 42.231,158.252 43.900 C 157.443 45.569,155.931 47.205,154.890 47.535 C 153.849 47.865,152.515 49.038,151.924 50.142 C 150.485 52.831,136.941 65.566,135.857 65.250 C 135.386 65.113,135.000 65.675,135.000 66.500 C 135.000 67.325,134.377 68.000,133.617 68.000 C 132.856 68.000,132.011 68.849,131.740 69.886 C 131.469 70.924,129.967 72.386,128.403 73.136 C 126.838 73.886,125.078 75.465,124.490 76.643 C 122.739 80.156,120.914 81.947,117.371 83.628 C 115.527 84.503,114.230 85.564,114.490 85.984 C 115.201 87.134,110.143 92.207,108.994 91.496 C 108.445 91.157,107.599 91.919,107.113 93.190 C 106.128 95.765,103.416 98.371,100.727 99.325 C 99.752 99.671,98.675 100.752,98.333 101.727 C 97.570 103.900,91.948 110.000,90.708 110.000 C 87.303 110.000,2.649 195.464,3.337 198.207 C 3.965 200.709,20.297 217.901,66.500 264.697 C 80.800 279.181,94.075 292.814,96.000 294.994 C 97.925 297.174,108.500 307.883,119.500 318.791 C 130.500 329.700,142.200 341.430,145.500 344.858 C 148.800 348.285,161.691 361.375,174.148 373.945 L 196.795 396.800 206.734 387.150 C 212.200 381.842,220.459 373.904,225.086 369.508 C 229.714 365.113,247.495 347.788,264.601 331.008 C 281.706 314.229,312.531 284.081,333.101 264.014 C 403.242 195.585,396.785 202.253,393.970 201.153 C 392.612 200.622,385.646 194.183,378.492 186.844 C 343.840 151.299,280.646 86.621,246.972 52.237 C 226.363 31.193,208.902 12.727,208.170 11.202 C 206.955 8.667,201.419 4.000,199.628 4.000 C 199.217 4.000,196.325 6.362,193.202 9.250 M210.017 133.072 C 224.115 136.979,237.795 147.616,236.636 153.770 C 236.353 155.271,235.834 159.537,235.481 163.250 C 235.129 166.963,234.706 170.000,234.541 170.000 C 234.376 170.000,231.327 167.143,227.766 163.650 C 203.279 139.641,168.593 146.771,159.001 177.786 C 145.069 222.835,189.971 254.095,227.483 225.461 C 233.096 221.177,233.968 221.148,233.830 225.250 C 233.769 227.037,234.034 231.200,234.419 234.500 L 235.118 240.500 230.075 243.778 C 199.844 263.435,162.866 254.747,147.299 224.330 C 121.882 174.668,159.995 119.210,210.017 133.072 M112.262 151.250 C 115.189 158.697,135.295 208.347,143.913 229.410 C 150.856 246.380,150.943 245.500,142.326 245.500 L 135.817 245.500 130.295 231.724 C 123.605 215.034,125.094 215.953,103.649 215.300 L 86.500 214.778 80.879 229.639 L 75.257 244.500 68.629 244.796 C 60.247 245.170,59.433 249.332,76.017 207.000 C 78.710 200.125,84.999 183.744,89.992 170.598 C 100.854 141.998,99.098 145.000,104.962 145.000 L 109.806 145.000 112.262 151.250 M259.235 148.250 C 260.125 148.938,266.088 157.600,272.486 167.500 C 278.885 177.400,284.656 186.047,285.311 186.715 C 286.238 187.661,289.160 183.786,298.501 169.219 C 312.872 146.808,312.700 147.000,318.500 147.000 L 323.000 147.000 323.000 196.500 L 323.000 246.000 317.500 246.000 L 312.000 246.000 312.000 210.582 C 312.000 191.102,311.731 174.462,311.402 173.605 C 311.002 172.562,306.972 178.078,299.226 190.273 C 292.859 200.298,287.568 208.623,287.468 208.774 C 286.465 210.285,282.320 204.987,272.328 189.419 L 260.500 170.993 260.238 208.496 L 259.976 246.000 253.988 246.000 L 248.000 246.000 248.000 196.500 L 248.000 147.000 252.809 147.000 C 255.454 147.000,258.346 147.563,259.235 148.250 M198.000 161.161 C 198.000 162.394,199.679 164.043,202.711 165.788 C 213.763 172.149,223.752 185.198,224.715 194.531 C 225.127 198.522,225.810 200.363,227.144 201.077 C 229.162 202.157,229.553 205.099,228.051 207.904 C 227.151 209.586,226.576 209.558,216.801 207.350 C 196.885 202.850,197.000 202.858,197.000 206.012 C 197.000 209.564,194.858 210.000,177.410 210.000 C 165.245 210.000,163.979 209.830,163.035 208.066 C 161.404 205.018,161.792 201.867,163.866 201.325 C 165.337 200.940,165.867 199.530,166.369 194.668 C 166.770 190.787,167.745 187.573,168.999 186.000 C 170.095 184.625,171.861 181.894,172.923 179.932 C 175.402 175.353,181.275 170.063,187.858 166.481 C 191.448 164.527,193.238 162.861,193.662 161.078 C 194.000 159.660,194.479 158.141,194.727 157.701 C 195.462 156.400,198.000 159.083,198.000 161.161 M192.407 168.427 C 190.433 169.810,186.272 177.625,187.094 178.407 C 187.912 179.186,205.000 179.475,205.000 178.710 C 205.000 178.276,204.115 176.185,203.033 174.064 C 199.461 167.063,196.556 165.522,192.407 168.427 M203.646 170.654 C 204.702 172.219,206.303 175.128,207.204 177.118 C 208.226 179.376,209.718 180.926,211.171 181.240 C 212.452 181.516,214.293 182.076,215.261 182.483 C 220.187 184.552,210.267 172.293,204.613 169.323 L 201.727 167.807 203.646 170.654 M98.178 185.178 C 94.819 194.103,92.219 201.553,92.400 201.733 C 92.581 201.914,98.406 201.935,105.345 201.781 L 117.961 201.500 111.547 185.650 C 108.019 176.932,104.942 169.608,104.708 169.375 C 104.475 169.142,101.536 176.253,98.178 185.178 M187.000 182.011 C 183.975 182.498,179.700 183.594,177.500 184.446 C 173.851 185.859,173.785 185.944,176.750 185.418 C 179.560 184.919,180.000 185.123,180.000 186.921 C 180.000 190.511,185.331 189.682,189.136 185.500 C 193.358 180.861,197.955 180.669,201.968 184.966 C 206.011 189.294,211.844 190.391,215.246 187.464 L 217.853 185.222 212.177 183.636 C 204.856 181.589,193.972 180.887,187.000 182.011 M190.000 188.500 C 189.275 190.406,188.331 191.000,186.025 191.000 C 183.430 191.000,183.000 191.372,183.000 193.614 C 183.000 196.179,183.087 196.212,187.750 195.413 C 190.363 194.965,193.850 194.599,195.500 194.599 C 197.150 194.599,200.637 194.965,203.250 195.413 C 207.867 196.204,208.000 196.157,208.000 193.727 C 208.000 190.896,202.180 189.082,200.783 191.477 C 199.029 194.481,192.499 192.723,192.510 189.250 C 192.521 185.380,191.323 185.021,190.000 188.500 M177.856 191.669 C 176.403 192.055,174.592 196.907,175.542 197.870 C 177.095 199.444,181.000 196.662,181.000 193.981 C 181.000 192.341,180.662 191.052,180.250 191.116 C 179.838 191.180,178.760 191.429,177.856 191.669 M210.452 191.881 C 208.537 193.796,210.290 196.999,213.750 197.906 C 223.522 200.468,223.000 200.508,223.000 197.192 C 223.000 193.803,221.078 192.541,219.395 194.825 C 217.987 196.735,215.000 195.662,215.000 193.246 C 215.000 191.591,211.725 190.608,210.452 191.881 M196.000 197.115 C 196.000 198.484,199.215 199.566,212.000 202.501 C 218.325 203.953,224.287 205.365,225.250 205.638 C 226.343 205.948,227.000 205.588,227.000 204.679 C 227.000 203.413,215.886 200.324,197.750 196.551 C 196.787 196.351,196.000 196.605,196.000 197.115 M208.945 207.149 C 216.031 208.613,215.095 209.969,207.000 209.969 C 201.181 209.969,199.333 209.291,199.592 207.250 C 199.889 204.901,200.002 204.787,201.456 205.345 C 202.257 205.652,205.627 206.464,208.945 207.149 " stroke="none" fill="#000000" fill-rule="evenodd"></path></g></svg>