<svg id="svg" version="1.1" width="428" height="363" xmlns="http://www.w3.org/2000/svg" xmlns:xlink="http://www.w3.org/1999/xlink" ><g id="svgg"><path id="path0" d="M197.487 2.570 C 195.919 3.984,193.742 6.908,192.649 9.068 L 190.661 12.996 192.936 15.450 C 195.468 18.182,195.247 20.006,192.035 22.905 C 190.793 24.026,189.471 26.943,188.754 30.148 C 188.093 33.099,187.213 35.514,186.796 35.514 C 186.380 35.514,186.221 36.040,186.442 36.682 C 187.394 39.451,182.793 46.112,179.057 47.371 C 174.347 48.959,169.523 52.659,167.789 56.014 C 167.012 57.516,165.321 58.935,163.876 59.298 C 162.477 59.649,158.247 61.381,154.477 63.146 C 150.707 64.911,147.454 66.355,147.247 66.355 C 146.029 66.355,129.208 76.982,122.897 81.737 C 118.785 84.836,115.105 87.269,114.720 87.144 C 114.334 87.018,114.019 87.547,114.019 88.318 C 114.019 89.089,113.620 89.720,113.132 89.720 C 112.022 89.720,91.589 110.220,91.589 111.334 C 91.589 111.782,90.888 112.150,90.031 112.150 C 89.174 112.150,88.724 112.400,89.029 112.705 C 89.765 113.441,81.317 124.834,80.259 124.533 C 79.808 124.404,79.489 124.614,79.550 125.000 C 79.857 126.947,79.295 128.037,77.982 128.037 C 77.181 128.037,76.754 128.408,77.034 128.861 C 77.314 129.314,76.583 131.102,75.409 132.833 C 74.235 134.565,72.982 136.744,72.625 137.676 C 72.250 138.656,71.518 139.088,70.890 138.700 C 70.251 138.305,70.056 138.435,70.415 139.016 C 71.086 140.102,65.950 150.485,64.187 151.606 C 63.580 151.992,63.378 152.314,63.736 152.322 C 64.095 152.330,63.949 153.598,63.412 155.139 C 62.861 156.719,62.004 157.675,61.447 157.331 C 60.895 156.990,60.732 157.162,61.077 157.721 C 61.956 159.143,60.014 163.786,58.843 163.062 C 58.210 162.671,58.081 163.307,58.475 164.875 C 58.846 166.352,58.690 167.290,58.075 167.290 C 57.521 167.290,57.294 167.878,57.569 168.596 C 58.106 169.995,55.739 172.549,50.764 175.936 C 48.025 177.800,47.676 178.523,47.670 182.334 C 47.665 185.657,47.256 186.821,45.863 187.474 C 44.872 187.938,41.298 190.946,37.919 194.158 L 31.776 199.998 31.776 215.770 L 31.776 231.542 28.972 232.103 L 26.168 232.664 26.168 258.352 L 26.168 284.040 22.196 285.025 C 16.496 286.439,12.425 287.544,6.308 289.336 L 0.935 290.910 0.935 306.652 L 0.935 322.394 3.271 322.981 C 4.556 323.303,5.607 323.942,5.607 324.400 C 5.607 324.859,6.219 325.234,6.967 325.234 C 7.994 325.234,8.393 326.772,8.602 331.542 L 8.879 337.850 107.009 337.850 L 205.140 337.850 205.607 315.421 C 206.010 296.096,206.269 293.041,207.477 293.353 C 208.248 293.552,211.192 294.319,214.019 295.056 C 220.808 296.827,228.694 298.773,237.850 300.935 C 247.273 303.159,254.982 305.090,262.150 307.020 C 265.234 307.850,271.332 309.315,275.701 310.275 C 280.070 311.235,286.168 312.725,289.252 313.587 C 292.336 314.449,298.014 315.779,301.869 316.543 C 305.724 317.307,309.720 318.288,310.748 318.724 C 311.776 319.160,314.720 319.995,317.290 320.578 C 319.860 321.161,324.486 322.280,327.570 323.064 C 330.654 323.847,336.752 325.328,341.121 326.355 C 353.705 329.311,358.308 330.476,359.813 331.086 C 361.352 331.710,366.816 332.963,377.570 335.159 C 381.425 335.946,385.470 337.021,386.559 337.546 C 390.762 339.575,392.046 338.317,392.177 332.041 C 392.302 326.031,393.436 323.865,396.795 323.220 C 398.480 322.896,398.615 321.827,398.853 306.886 L 399.109 290.899 396.517 289.880 C 395.091 289.319,392.243 288.579,390.187 288.234 C 388.131 287.889,386.028 287.289,385.514 286.900 C 385.000 286.511,382.687 285.887,380.374 285.514 C 373.527 284.409,373.832 285.698,373.832 257.829 C 373.832 234.264,373.728 232.710,372.150 232.710 C 368.611 232.710,368.224 230.980,368.224 215.173 L 368.224 199.878 363.084 194.820 C 360.257 192.037,357.944 189.423,357.944 189.011 C 357.944 188.598,356.682 187.784,355.140 187.202 C 352.662 186.267,352.336 185.705,352.336 182.368 C 352.336 179.084,351.848 178.200,348.578 175.572 C 346.511 173.911,344.970 172.104,345.155 171.556 C 345.340 171.009,344.920 170.139,344.221 169.625 C 343.523 169.110,342.855 167.323,342.738 165.654 C 342.620 163.986,342.173 162.620,341.745 162.619 C 341.316 162.618,341.143 162.091,341.359 161.449 C 341.576 160.806,341.198 159.860,340.520 159.346 C 339.843 158.832,339.175 157.382,339.037 156.123 C 338.898 154.865,338.017 153.045,337.077 152.079 C 336.138 151.113,335.597 149.729,335.875 149.004 C 336.154 148.279,336.017 147.786,335.572 147.908 C 334.405 148.229,328.857 137.390,329.585 136.212 C 329.933 135.650,329.752 135.499,329.163 135.863 C 327.959 136.608,325.914 133.310,326.902 132.216 C 327.269 131.809,327.077 131.758,326.475 132.103 C 325.183 132.843,322.158 127.364,323.057 125.910 C 323.386 125.377,323.202 125.224,322.646 125.568 C 321.782 126.102,317.757 121.704,317.757 120.225 C 317.757 119.943,316.811 118.714,315.654 117.496 C 309.197 110.695,306.569 107.255,307.132 106.343 C 307.488 105.768,307.339 105.582,306.792 105.920 C 305.605 106.654,303.476 104.312,304.447 103.341 C 304.828 102.960,304.720 102.785,304.206 102.953 C 302.826 103.402,297.150 98.028,297.834 96.921 C 298.156 96.399,297.982 96.244,297.447 96.574 C 296.235 97.323,294.154 94.969,295.102 93.923 C 295.483 93.502,295.338 93.418,294.779 93.736 C 294.221 94.054,291.024 91.913,287.676 88.979 C 284.327 86.045,280.635 83.014,279.472 82.243 C 278.308 81.472,275.616 79.553,273.491 77.979 C 267.481 73.528,259.057 68.660,250.907 64.928 C 238.823 59.396,237.610 58.879,236.710 58.879 C 236.238 58.879,235.250 57.519,234.514 55.857 C 232.935 52.286,227.199 48.260,221.975 47.056 C 217.890 46.115,212.514 35.875,213.585 31.075 C 213.843 29.918,213.626 28.972,213.102 28.972 C 212.578 28.972,212.150 27.992,212.150 26.793 C 212.150 25.444,211.287 24.153,209.884 23.403 C 206.778 21.740,205.859 17.767,208.152 15.908 C 210.157 14.280,211.570 11.215,210.314 11.215 C 209.851 11.215,209.187 10.269,208.840 9.112 C 208.227 7.072,202.075 0.000,200.913 0.000 C 200.596 0.000,199.054 1.157,197.487 2.570 M212.893 59.598 C 220.691 63.290,236.992 80.057,236.388 83.764 C 236.333 84.098,236.683 84.628,237.164 84.942 C 238.510 85.823,243.108 93.456,242.301 93.472 C 241.909 93.480,242.047 93.796,242.608 94.173 C 243.905 95.047,251.675 112.059,253.593 118.224 C 254.393 120.794,255.743 124.790,256.593 127.103 C 257.443 129.416,258.148 132.255,258.158 133.411 C 258.169 134.568,258.493 135.514,258.879 135.514 C 259.655 135.514,261.055 140.593,262.058 147.051 C 262.467 149.679,262.428 149.703,258.572 149.176 C 256.428 148.883,250.467 148.204,245.327 147.667 C 240.187 147.130,233.643 146.279,230.785 145.775 C 224.059 144.590,176.921 144.585,170.150 145.768 C 167.292 146.268,160.537 147.132,155.140 147.689 C 149.743 148.247,143.750 148.934,141.822 149.216 C 138.094 149.762,137.719 149.250,139.176 145.605 C 140.594 142.059,141.399 139.773,141.575 138.785 C 142.312 134.674,143.373 131.776,144.142 131.776 C 144.647 131.776,144.816 131.140,144.518 130.363 C 143.967 128.928,145.588 124.288,146.993 123.279 C 147.416 122.975,147.649 122.344,147.510 121.877 C 147.119 120.557,149.851 112.150,150.671 112.150 C 151.073 112.150,151.297 111.830,151.168 111.440 C 150.847 110.464,156.228 97.799,157.265 97.092 C 157.726 96.777,158.041 96.357,157.963 96.157 C 157.554 95.097,164.361 82.938,166.276 81.308 C 166.578 81.051,167.374 79.773,168.045 78.467 C 168.716 77.162,171.483 73.797,174.193 70.991 C 188.257 56.429,199.321 53.172,212.893 59.598 M229.686 60.638 C 230.578 61.092,233.832 62.409,236.916 63.565 C 244.742 66.499,253.976 71.027,255.241 72.552 C 255.826 73.256,256.728 73.832,257.247 73.832 C 262.574 73.832,293.515 102.090,305.855 118.224 C 310.011 123.658,313.280 128.324,314.767 130.942 C 315.757 132.685,318.097 136.706,319.966 139.877 C 321.835 143.047,323.364 145.909,323.364 146.237 C 323.364 146.564,324.288 148.806,325.418 151.219 C 326.547 153.633,327.388 155.923,327.287 156.308 C 327.186 156.694,327.523 157.009,328.037 157.009 C 328.551 157.009,328.972 157.780,328.972 158.723 C 328.972 159.665,329.287 160.752,329.673 161.137 C 330.058 161.523,330.410 162.118,330.455 162.461 C 330.499 162.804,330.777 163.715,331.073 164.486 C 334.082 172.328,333.703 173.207,328.415 170.650 C 326.922 169.929,323.598 168.439,321.028 167.341 C 318.458 166.242,315.304 164.779,314.019 164.088 C 312.734 163.398,310.210 162.525,308.411 162.150 C 306.612 161.774,304.720 161.159,304.206 160.782 C 302.771 159.732,284.681 154.324,277.103 152.680 C 274.258 152.063,273.364 151.422,273.364 150.000 C 273.364 148.972,273.027 147.882,272.614 147.577 C 271.639 146.860,269.169 136.253,269.755 135.305 C 270.002 134.906,269.791 134.579,269.287 134.579 C 268.025 134.579,266.064 128.331,266.900 126.977 C 267.302 126.326,267.176 126.128,266.591 126.490 C 265.426 127.210,263.289 121.742,264.174 120.309 C 264.505 119.775,264.329 119.613,263.784 119.950 C 262.836 120.536,259.364 112.287,260.205 111.446 C 260.418 111.233,259.753 110.221,258.728 109.196 C 257.703 108.171,257.103 106.712,257.394 105.954 C 257.685 105.196,257.576 104.790,257.153 105.051 C 256.337 105.556,250.755 93.548,251.191 92.227 C 251.333 91.799,251.057 91.691,250.579 91.987 C 249.665 92.552,244.548 84.549,244.548 82.553 C 244.548 81.914,244.242 81.580,243.867 81.811 C 243.493 82.043,242.905 81.499,242.561 80.602 C 242.217 79.706,241.857 78.770,241.762 78.523 C 241.667 78.276,240.432 76.969,239.019 75.618 C 237.605 74.267,236.440 72.787,236.430 72.329 C 236.419 71.870,233.896 69.227,230.822 66.455 C 224.204 60.486,223.633 57.561,229.686 60.638 M174.162 62.839 C 173.768 63.476,172.260 64.995,170.809 66.216 C 167.253 69.208,160.967 77.484,154.846 87.233 C 152.068 91.658,149.458 94.973,149.047 94.602 C 148.635 94.230,148.593 94.439,148.954 95.066 C 149.620 96.226,147.197 101.865,145.584 102.908 C 145.098 103.223,144.780 103.767,144.877 104.118 C 145.189 105.242,141.100 114.019,140.265 114.019 C 139.822 114.019,139.504 114.544,139.557 115.187 C 139.746 117.463,137.283 124.348,136.462 123.840 C 136.003 123.556,135.679 124.069,135.741 124.980 C 135.956 128.089,134.565 131.877,133.459 131.193 C 132.758 130.760,132.594 131.059,132.979 132.063 C 133.679 133.887,131.974 139.252,130.695 139.252 C 130.200 139.252,130.031 139.632,130.318 140.096 C 130.604 140.560,130.283 143.387,129.604 146.378 L 128.369 151.817 120.960 153.392 C 111.340 155.437,102.214 158.119,95.794 160.788 C 94.766 161.215,92.874 161.848,91.589 162.195 C 90.304 162.541,87.991 163.378,86.449 164.055 C 84.907 164.732,81.542 166.197,78.972 167.312 C 76.402 168.426,73.074 169.930,71.577 170.654 C 68.599 172.095,67.606 171.832,68.817 169.922 C 69.246 169.245,69.638 168.481,69.688 168.224 C 70.477 164.153,71.557 162.746,75.063 161.221 C 77.213 160.286,81.285 158.420,84.112 157.074 C 86.939 155.729,91.145 154.058,93.458 153.361 C 95.771 152.664,98.989 151.518,100.609 150.814 C 102.228 150.109,104.201 149.533,104.993 149.533 C 105.784 149.533,106.692 149.112,107.009 148.598 C 107.327 148.084,108.508 147.654,109.635 147.643 C 112.198 147.617,119.721 144.263,119.456 143.264 C 119.073 141.821,122.657 131.215,125.793 124.512 C 127.541 120.774,128.972 117.569,128.972 117.389 C 128.972 117.209,131.324 112.908,134.199 107.830 C 145.418 88.013,158.581 72.205,170.544 64.179 C 174.744 61.361,175.173 61.202,174.162 62.839 M239.720 153.747 C 255.616 155.385,265.452 157.133,284.112 161.635 C 285.911 162.070,288.855 162.737,290.654 163.120 C 292.453 163.502,294.346 164.105,294.860 164.459 C 295.374 164.814,299.369 166.264,303.738 167.681 C 318.221 172.379,338.896 182.791,347.263 189.602 C 347.814 190.050,350.806 192.349,353.912 194.711 C 362.591 201.312,362.713 201.625,362.410 216.519 C 362.258 223.976,361.761 229.409,361.215 229.581 C 358.842 230.330,357.896 228.105,357.690 221.289 C 357.573 217.394,357.184 214.386,356.826 214.604 C 356.006 215.104,354.104 208.397,354.763 207.331 C 355.031 206.897,354.640 206.542,353.895 206.542 C 352.684 206.542,350.854 202.503,351.249 200.701 C 351.333 200.315,351.040 200.000,350.597 200.000 C 350.154 200.000,347.764 198.111,345.285 195.803 C 342.806 193.494,339.909 191.377,338.847 191.097 C 337.785 190.818,335.337 190.115,333.408 189.536 C 329.853 188.470,319.626 190.830,319.626 192.717 C 319.626 193.124,319.100 193.465,318.458 193.474 C 315.772 193.511,308.193 204.553,307.011 210.151 C 306.337 213.342,301.004 213.977,297.710 211.258 C 297.170 210.812,295.047 210.145,292.991 209.775 C 290.935 209.405,288.663 208.631,287.943 208.056 C 287.101 207.383,279.699 206.902,267.203 206.709 C 249.891 206.441,247.836 206.246,248.345 204.920 C 248.671 204.069,248.525 203.673,248.003 203.996 C 247.008 204.611,244.584 194.660,245.405 193.332 C 245.680 192.887,245.410 192.523,244.806 192.523 C 244.167 192.523,243.912 191.741,244.196 190.654 C 244.465 189.626,244.371 188.785,243.988 188.785 C 243.604 188.785,242.859 187.839,242.331 186.682 C 241.804 185.526,239.847 182.582,237.982 180.140 C 236.117 177.699,234.862 175.701,235.193 175.701 C 236.449 175.701,227.316 169.593,221.573 166.593 C 205.521 158.206,182.642 161.597,168.967 174.388 C 166.523 176.674,164.556 178.641,164.595 178.758 C 164.784 179.318,161.027 185.538,159.579 187.062 C 158.680 188.010,158.132 188.785,158.363 188.785 C 158.593 188.785,158.341 190.047,157.804 191.589 C 157.266 193.131,156.458 194.393,156.007 194.393 C 155.556 194.393,155.439 195.654,155.748 197.196 C 156.129 199.102,155.938 200.000,155.153 200.000 C 154.339 200.000,154.179 200.966,154.611 203.271 L 155.225 206.542 135.575 206.542 C 119.851 206.542,115.189 206.837,112.237 208.018 C 104.468 211.126,104.241 210.771,103.947 195.039 C 103.650 179.179,104.926 180.452,93.458 184.573 C 90.117 185.774,85.701 187.268,83.645 187.893 C 81.589 188.517,79.368 189.456,78.711 189.979 C 77.894 190.628,76.769 190.589,75.162 189.857 C 69.380 187.223,60.917 189.770,54.189 196.171 C 51.975 198.277,49.858 200.000,49.484 200.000 C 49.111 200.000,48.864 200.678,48.936 201.506 C 49.007 202.335,48.240 203.491,47.232 204.076 C 46.223 204.661,43.805 206.092,41.858 207.255 L 38.318 209.369 38.318 205.732 C 38.318 202.566,38.906 201.565,42.853 198.010 C 50.513 191.112,53.238 188.785,53.656 188.785 C 53.877 188.785,57.350 186.761,61.375 184.287 C 69.806 179.104,86.794 170.668,91.589 169.283 C 95.721 168.090,102.699 165.633,105.140 164.512 C 106.168 164.039,109.533 163.165,112.617 162.568 C 115.701 161.971,118.855 161.240,119.626 160.944 C 138.051 153.869,203.083 149.972,239.720 153.747 M209.452 169.161 C 222.843 171.651,242.850 191.713,239.819 199.611 C 239.552 200.306,239.736 201.123,240.228 201.427 C 240.719 201.731,241.121 204.478,241.121 207.532 L 241.121 213.084 258.645 213.098 C 268.283 213.106,276.702 213.451,277.354 213.865 C 278.269 214.446,278.482 219.714,278.288 236.982 L 278.037 259.346 275.234 259.197 C 271.968 259.023,248.307 253.488,244.860 252.091 C 244.089 251.779,241.355 251.060,238.785 250.495 C 236.215 249.929,230.748 248.666,226.636 247.689 C 222.523 246.712,217.056 245.448,214.486 244.881 C 211.916 244.314,209.139 243.481,208.315 243.031 C 205.126 241.288,198.611 240.978,194.393 242.368 C 192.079 243.131,188.715 244.028,186.916 244.362 C 185.117 244.696,182.804 245.333,181.776 245.778 C 180.748 246.223,176.752 247.223,172.897 248.001 C 169.042 248.779,163.364 250.088,160.280 250.911 C 146.017 254.713,128.762 258.877,124.516 259.543 L 121.462 260.021 121.712 236.786 L 121.963 213.551 141.590 213.300 L 161.217 213.048 161.416 206.490 C 161.525 202.883,161.938 199.422,162.335 198.798 C 162.731 198.174,163.091 197.453,163.135 197.196 C 163.695 193.895,165.707 188.785,166.446 188.785 C 166.971 188.785,167.181 188.431,166.913 187.997 C 166.020 186.553,175.683 176.783,181.103 173.651 C 189.592 168.744,199.107 167.237,209.452 169.161 M190.766 178.647 C 185.696 180.105,179.581 184.446,181.193 185.442 C 181.651 185.726,184.493 185.132,187.508 184.123 C 200.515 179.772,203.738 181.447,203.738 192.556 C 203.738 202.454,203.349 202.248,209.854 195.794 C 215.282 190.410,216.245 189.906,217.442 191.822 C 218.943 194.226,218.377 195.343,213.107 200.370 C 206.592 206.584,206.563 206.542,217.326 206.542 L 225.929 206.542 226.511 210.180 C 227.104 213.889,225.771 223.317,224.522 224.251 C 223.408 225.083,223.157 228.972,224.216 228.972 C 224.749 228.972,225.838 227.710,226.636 226.168 C 227.433 224.626,228.495 223.364,228.996 223.364 C 229.497 223.364,229.826 223.049,229.729 222.664 C 229.417 221.438,230.964 215.888,231.616 215.888 C 231.961 215.888,232.243 212.774,232.243 208.968 C 232.243 205.162,231.993 202.202,231.688 202.391 C 230.848 202.910,228.967 196.102,229.629 194.939 C 229.947 194.382,229.855 194.244,229.426 194.633 C 228.997 195.022,227.768 193.775,226.694 191.860 C 220.505 180.827,204.129 174.804,190.766 178.647 M191.355 187.113 C 185.778 189.507,185.811 190.094,191.852 196.060 C 198.208 202.337,198.256 202.315,197.935 193.300 C 197.628 184.658,197.454 184.494,191.355 187.113 M179.658 198.832 C 178.767 200.759,177.708 202.580,177.305 202.878 C 174.492 204.959,178.082 206.542,185.614 206.542 C 194.895 206.542,194.768 206.816,188.459 200.406 C 182.529 194.380,181.778 194.246,179.658 198.832 M75.514 197.584 C 81.546 200.744,87.786 210.663,86.254 214.656 C 85.871 215.655,86.030 215.968,86.710 215.548 C 87.376 215.136,87.987 216.131,88.391 218.284 C 89.096 222.043,88.704 222.008,98.131 219.165 C 100.958 218.312,105.164 217.182,107.477 216.653 C 109.790 216.124,112.082 215.315,112.570 214.855 C 114.702 212.847,114.953 215.308,114.953 238.160 L 114.953 262.302 110.514 263.420 C 108.072 264.035,102.710 265.331,98.598 266.300 C 94.486 267.269,88.388 268.764,85.047 269.621 C 81.706 270.478,77.624 271.400,75.976 271.669 L 72.979 272.158 72.705 264.817 C 72.459 258.241,72.248 257.508,70.683 257.777 C 63.597 258.994,55.326 253.201,51.134 244.084 C 48.804 239.016,48.122 218.123,50.149 213.926 C 50.746 212.692,52.120 209.790,53.203 207.477 C 57.869 197.513,67.352 193.308,75.514 197.584 M338.515 197.302 C 341.420 198.856,344.590 202.759,346.780 207.477 C 347.854 209.790,349.171 212.491,349.709 213.479 C 350.246 214.468,350.906 219.612,351.177 224.911 L 351.669 234.545 355.040 235.151 C 356.894 235.485,358.832 236.086,359.346 236.487 C 359.860 236.888,361.857 237.511,363.785 237.871 L 367.290 238.526 367.290 260.384 C 367.290 272.407,366.974 282.233,366.589 282.221 C 366.203 282.208,364.206 281.761,362.150 281.226 C 356.149 279.666,347.757 277.599,339.720 275.701 C 329.825 273.365,322.258 271.462,315.421 269.591 C 312.336 268.747,306.238 267.270,301.869 266.308 C 297.500 265.346,292.033 264.075,289.720 263.484 L 285.514 262.409 285.514 238.414 L 285.514 214.418 289.720 215.756 C 292.033 216.492,294.643 217.446,295.520 217.875 C 296.397 218.305,298.825 218.930,300.914 219.264 C 303.004 219.598,304.940 220.237,305.216 220.684 C 306.978 223.535,311.113 221.420,311.395 217.523 C 311.596 214.748,312.069 213.633,312.965 213.823 C 313.773 213.994,314.047 213.571,313.705 212.681 C 310.290 203.782,328.977 192.197,338.515 197.302 M66.138 202.780 C 64.734 203.050,62.631 204.105,61.465 205.123 C 60.300 206.142,58.999 206.868,58.575 206.736 C 58.152 206.604,58.044 206.882,58.336 207.354 C 59.043 208.500,56.223 215.155,55.278 214.571 C 54.870 214.319,54.486 220.200,54.425 227.639 C 54.356 235.917,54.656 240.954,55.196 240.620 C 56.321 239.925,58.164 244.655,57.333 246.106 C 56.990 246.706,57.016 246.923,57.390 246.588 C 57.764 246.254,59.318 247.200,60.843 248.691 C 66.666 254.383,77.238 250.666,79.905 241.988 C 80.289 240.740,80.998 239.224,81.481 238.619 C 82.080 237.869,81.241 236.280,78.851 233.634 C 74.877 229.235,75.223 227.000,80.006 226.162 C 81.871 225.836,82.799 225.065,82.998 223.678 C 83.265 221.810,83.035 221.724,79.753 222.465 C 77.810 222.903,76.033 223.074,75.804 222.844 C 75.338 222.379,77.648 217.578,78.723 216.776 C 79.101 216.493,79.656 214.811,79.955 213.038 C 80.398 210.410,80.303 210.119,79.444 211.468 C 78.864 212.379,77.890 212.837,77.279 212.487 C 76.668 212.136,76.449 212.163,76.793 212.546 C 77.578 213.422,75.770 218.747,74.128 220.394 C 73.110 221.416,72.897 220.408,72.897 214.553 C 72.897 207.505,72.907 207.477,75.397 207.477 L 77.896 207.477 75.790 205.235 C 73.531 202.831,70.237 201.993,66.138 202.780 M326.403 203.262 C 322.088 205.137,320.629 208.710,322.703 212.323 C 323.581 213.853,324.299 215.702,324.299 216.431 C 324.299 217.160,324.875 217.757,325.579 217.757 C 326.545 217.757,326.785 216.482,326.558 212.557 C 326.300 208.075,326.478 207.399,327.849 207.659 C 329.110 207.899,329.536 209.315,329.907 214.495 L 330.374 221.028 333.065 217.510 C 335.551 214.261,335.851 214.118,337.007 215.641 C 338.724 217.904,338.729 217.890,335.058 222.016 L 331.799 225.680 336.460 227.451 C 342.971 229.925,343.289 233.248,336.924 232.293 C 332.156 231.578,332.070 232.208,336.113 238.258 C 337.715 240.655,338.000 241.780,337.239 242.697 C 335.575 244.702,334.779 244.159,332.535 239.486 L 330.403 235.047 330.110 240.888 C 329.852 246.043,329.594 246.729,327.916 246.729 C 326.156 246.729,326.038 246.244,326.325 240.185 C 326.678 232.737,325.955 232.155,322.196 236.866 C 319.055 240.803,319.045 241.172,321.949 245.773 C 325.719 251.745,334.063 253.718,337.850 249.533 C 338.781 248.505,340.038 247.664,340.643 247.664 C 341.249 247.664,341.775 247.138,341.813 246.495 C 341.850 245.853,342.786 242.849,343.892 239.821 C 345.901 234.321,346.556 214.372,344.689 215.526 C 343.879 216.027,342.473 211.388,342.859 209.486 C 343.020 208.695,342.684 208.490,341.960 208.938 C 341.147 209.440,340.986 209.177,341.419 208.049 C 341.788 207.089,341.661 206.676,341.103 207.021 C 340.590 207.338,339.781 206.623,339.304 205.434 C 338.827 204.244,338.410 203.565,338.377 203.924 C 338.344 204.284,336.859 203.968,335.077 203.223 C 331.133 201.576,330.274 201.580,326.403 203.262 M70.093 215.421 C 70.093 222.111,69.829 222.473,67.190 219.393 C 63.674 215.287,63.472 214.372,65.509 211.782 C 68.825 207.567,70.093 208.574,70.093 215.421 M177.038 213.189 C 176.685 213.760,176.814 214.496,177.324 214.824 C 178.273 215.433,179.472 218.494,179.348 219.989 C 179.277 220.853,181.259 222.391,182.476 222.416 C 182.862 222.423,185.509 220.117,188.359 217.290 L 193.540 212.150 185.610 212.150 C 180.800 212.150,177.428 212.558,177.038 213.189 M213.084 217.290 C 219.482 223.768,221.356 223.361,223.000 215.138 L 223.598 212.150 215.803 212.150 L 208.008 212.150 213.084 217.290 M318.291 215.487 C 316.073 217.706,316.419 221.169,318.925 221.841 C 323.107 222.962,323.452 222.587,321.535 219.009 C 320.526 217.127,319.919 215.235,320.186 214.803 C 320.985 213.510,319.863 213.915,318.291 215.487 M203.738 223.671 C 203.738 232.865,204.586 233.592,211.180 230.056 C 215.686 227.639,215.615 227.292,209.344 221.101 L 203.738 215.566 203.738 223.671 M191.557 222.007 L 186.449 227.191 188.785 228.981 C 195.393 234.043,198.131 232.518,198.131 223.777 C 198.131 215.451,198.040 215.427,191.557 222.007 M65.259 221.017 C 66.491 222.316,67.137 223.790,66.750 224.416 C 66.320 225.111,66.467 225.275,67.145 224.856 C 67.739 224.489,68.224 224.533,68.224 224.954 C 68.224 226.090,65.293 227.712,61.885 228.460 C 59.015 229.090,58.879 228.992,58.879 226.286 C 58.879 219.537,61.669 217.232,65.259 221.017 M316.822 231.024 L 316.822 235.881 320.093 232.710 C 324.014 228.911,324.026 228.819,320.834 227.336 C 317.043 225.576,316.822 225.778,316.822 231.024 M67.444 231.661 C 66.757 232.096,66.308 232.615,66.445 232.815 C 67.210 233.924,65.413 237.489,64.404 236.866 C 63.709 236.436,63.503 236.549,63.877 237.154 C 64.749 238.564,63.591 241.121,62.082 241.121 C 57.955 241.121,57.809 233.072,61.916 231.887 C 65.957 230.720,69.133 230.590,67.444 231.661 M75.321 234.222 C 75.053 234.920,75.344 235.392,75.968 235.269 C 76.592 235.147,77.047 235.766,76.979 236.646 C 76.911 237.525,77.332 238.156,77.914 238.047 C 78.496 237.939,78.972 238.692,78.972 239.720 C 78.972 240.897,78.453 241.473,77.570 241.277 C 76.799 241.106,76.480 241.278,76.861 241.659 C 77.764 242.562,75.843 244.860,74.185 244.860 C 73.214 244.860,72.897 243.256,72.897 238.347 C 72.897 232.835,73.121 231.920,74.353 232.393 C 75.153 232.700,75.589 233.523,75.321 234.222 M70.194 240.189 C 70.460 246.606,68.483 248.723,64.957 245.798 C 63.558 244.636,63.755 243.886,67.132 237.526 C 69.777 232.546,69.881 232.636,70.194 240.189 M205.387 249.495 C 206.279 249.988,209.112 250.862,211.682 251.436 C 214.252 252.010,218.879 253.121,221.963 253.905 C 225.047 254.688,231.145 256.169,235.514 257.196 C 248.097 260.152,252.701 261.318,254.206 261.927 C 255.774 262.563,261.522 263.876,271.963 265.984 C 275.818 266.763,279.619 267.743,280.410 268.164 C 281.201 268.584,283.708 269.242,285.981 269.626 C 288.255 270.010,290.762 270.676,291.553 271.106 C 293.051 271.920,297.507 272.973,309.346 275.309 C 313.201 276.070,317.196 277.076,318.224 277.544 C 319.252 278.012,322.196 278.876,324.766 279.463 C 335.364 281.882,344.743 284.099,350.467 285.538 C 353.808 286.378,358.645 287.590,361.215 288.231 C 363.785 288.872,366.519 289.663,367.290 289.989 C 368.061 290.315,371.846 291.202,375.701 291.959 C 379.556 292.716,384.813 293.916,387.383 294.625 L 392.056 295.914 392.318 307.884 L 392.581 319.855 390.449 319.323 C 389.277 319.031,384.533 317.896,379.907 316.802 C 367.286 313.817,362.300 312.536,360.748 311.880 C 359.977 311.554,356.192 310.660,352.336 309.894 C 348.481 309.128,342.804 307.808,339.720 306.961 C 336.636 306.113,332.009 304.904,329.439 304.273 C 326.869 303.643,324.136 302.860,323.364 302.534 C 322.593 302.208,318.808 301.302,314.953 300.521 C 304.334 298.368,297.767 296.787,296.729 296.132 C 296.215 295.808,293.902 295.235,291.589 294.860 C 289.276 294.484,286.963 293.911,286.449 293.587 C 285.935 293.262,282.150 292.290,278.037 291.427 C 270.518 289.848,264.106 288.287,253.738 285.512 C 250.654 284.687,244.766 283.219,240.654 282.250 C 236.542 281.281,230.444 279.797,227.103 278.953 C 223.762 278.109,217.664 276.644,213.551 275.697 C 198.945 272.334,200.033 273.579,200.014 260.202 C 199.998 248.159,200.643 246.873,205.387 249.495 M196.096 282.533 C 196.511 286.158,195.055 287.539,190.019 288.294 C 187.647 288.650,185.032 289.302,184.208 289.743 C 183.384 290.184,179.556 291.182,175.701 291.962 C 168.088 293.501,160.637 295.275,151.869 297.636 C 148.785 298.467,142.687 299.931,138.318 300.891 C 133.949 301.851,127.850 303.327,124.766 304.171 C 117.508 306.156,109.778 308.088,100.467 310.241 C 96.355 311.192,90.257 312.655,86.916 313.492 C 83.575 314.329,77.477 315.812,73.364 316.787 C 65.440 318.667,58.515 320.377,48.598 322.903 C 45.257 323.754,39.159 325.230,35.047 326.183 C 30.935 327.136,25.678 328.367,23.364 328.919 C 14.185 331.108,14.953 331.258,14.953 327.278 C 14.953 323.335,14.723 323.455,28.037 320.462 C 30.350 319.943,33.084 319.175,34.112 318.757 C 35.140 318.339,39.136 317.346,42.991 316.551 C 46.846 315.756,52.523 314.426,55.607 313.596 C 58.692 312.766,64.790 311.248,69.159 310.223 C 79.706 307.748,86.208 306.112,92.991 304.226 C 96.075 303.368,102.173 301.893,106.542 300.947 C 110.911 300.002,114.486 299.157,114.486 299.069 C 114.486 298.981,116.799 298.347,119.626 297.660 C 122.453 296.973,127.500 295.723,130.841 294.882 C 134.182 294.042,140.280 292.568,144.393 291.608 C 148.505 290.647,154.393 289.177,157.477 288.341 C 160.561 287.504,164.977 286.397,167.290 285.879 C 169.603 285.361,172.336 284.572,173.364 284.126 C 174.393 283.680,178.178 282.809,181.776 282.190 C 185.374 281.572,188.949 280.703,189.720 280.259 C 192.601 278.599,195.774 279.731,196.096 282.533 M221.901 315.244 C 221.642 315.918,221.550 321.280,221.697 327.160 L 221.963 337.850 270.523 338.093 C 319.638 338.338,324.189 338.005,310.280 335.191 C 306.425 334.411,300.537 333.079,297.196 332.232 C 293.855 331.385,288.808 330.130,285.981 329.443 C 283.154 328.756,280.841 328.122,280.841 328.034 C 280.841 327.946,277.266 327.088,272.897 326.128 C 262.936 323.937,255.092 321.988,253.271 321.250 C 251.725 320.624,246.466 319.409,234.891 317.006 C 230.693 316.134,226.943 315.105,226.557 314.720 C 225.419 313.580,222.409 313.919,221.901 315.244 " stroke="none" fill="#000000" fill-rule="evenodd"></path></g></svg>